<?xml version="1.0" encoding="UTF-8" standalone="no"?><!DOCTYPE svg PUBLIC "-//W3C//DTD SVG 1.1//EN" "http://www.w3.org/Graphics/SVG/1.1/DTD/svg11.dtd"><!-- Generated by graphviz version 2.40.1 (20161225.0304)
 --><!-- Title: AdvancedRAGSystem Pages: 1 --><svg xmlns="http://www.w3.org/2000/svg" xmlns:xlink="http://www.w3.org/1999/xlink" width="1391pt" height="971pt" viewBox="0.00 0.00 1391.16 971.11">
<g id="graph0" class="graph" transform="scale(1 1) rotate(0) translate(4 967.1138)">
<title>AdvancedRAGSystem</title>
<polygon fill="#ffffff" stroke="transparent" points="-4,4 -4,-967.1138 1387.1606,-967.1138 1387.1606,4 -4,4"/>
<g id="clust1" class="cluster">
<title>cluster_pipeline</title>
<polygon fill="#e0ffff" stroke="#e0ffff" points="53,-276.8 53,-701.8 303,-701.8 303,-276.8 53,-276.8"/>
<text text-anchor="middle" x="178" y="-685.2" font-family="Times,serif" font-size="14.00" fill="#000000">数据接入与处理层</text>
</g>
<g id="clust2" class="cluster">
<title>cluster_rag_core</title>
<polygon fill="#87cefa" stroke="#87cefa" points="8,-8 8,-242 345,-242 345,-8 8,-8"/>
<text text-anchor="middle" x="176.5" y="-225.4" font-family="Times,serif" font-size="14.00" fill="#000000">RAG核心引擎</text>
</g>
<g id="clust3" class="cluster">
<title>cluster_langgraph</title>
<polygon fill="#f08080" stroke="#f08080" points="353,-86.6 353,-511.6 1238,-511.6 1238,-86.6 353,-86.6"/>
<text text-anchor="middle" x="795.5" y="-495" font-family="Times,serif" font-size="14.00" fill="#000000">LangGraph Agent协作框架</text>
</g>
<g id="clust4" class="cluster">
<title>cluster_agents</title>
<polygon fill="#ffb6c1" stroke="#ffb6c1" points="361,-279.6 361,-356.4 1188,-356.4 1188,-279.6 361,-279.6"/>
<text text-anchor="middle" x="774.5" y="-339.8" font-family="Times,serif" font-size="14.00" fill="#000000">专业智能体池</text>
</g>
<g id="clust5" class="cluster">
<title>cluster_interaction</title>
<polygon fill="#fafad2" stroke="#fafad2" points="530,-546.4 530,-797.6 750,-797.6 750,-546.4 530,-546.4"/>
<text text-anchor="middle" x="640" y="-781" font-family="Times,serif" font-size="14.00" fill="#000000">用户交互层</text>
</g>
<!-- User -->
<g id="node1" class="node">
<title>User</title>
<ellipse fill="#ffffe0" stroke="#add8e6" cx="709" cy="-901.7569" rx="61.2142" ry="61.2142"/>
<text text-anchor="middle" x="709" y="-897.5569" font-family="微软雅黑" font-size="14.00" fill="#000000">开发者用户</text>
</g>
<!-- APIInterface -->
<g id="node17" class="node">
<title>APIInterface</title>
<polygon fill="#add8e6" stroke="#add8e6" points="742.0513,-764.8 675.9487,-764.8 675.9487,-728.8 742.0513,-728.8 742.0513,-764.8"/>
<text text-anchor="middle" x="709" y="-742.6" font-family="微软雅黑" font-size="14.00" fill="#000000">API接口</text>
</g>
<!-- User&#45;&gt;APIInterface -->
<g id="edge1" class="edge">
<title>User-&gt;APIInterface</title>
<path fill="none" stroke="#000000" d="M709,-840.0686C709,-817.5973 709,-793.2753 709,-775.1041"/>
<polygon fill="#000000" stroke="#000000" points="712.5001,-774.9168 709,-764.9168 705.5001,-774.9169 712.5001,-774.9168"/>
<text text-anchor="middle" x="747.2298" y="-809.8" font-family="微软雅黑" font-size="14.00" fill="#000000">查询/请求</text>
</g>
<!-- DataSources -->
<g id="node2" class="node">
<title>DataSources</title>
<polygon fill="#add8e6" stroke="#add8e6" points="251.4722,-668.8019 114.5278,-668.8019 114.5278,-627.5981 251.4722,-627.5981 251.4722,-668.8019"/>
<text text-anchor="middle" x="183" y="-652.4" font-family="微软雅黑" font-size="14.00" fill="#000000">数据源</text>
<text text-anchor="middle" x="183" y="-635.6" font-family="微软雅黑" font-size="14.00" fill="#000000">(代码库、文档、API)</text>
</g>
<!-- IngestionPipeline -->
<g id="node3" class="node">
<title>IngestionPipeline</title>
<polygon fill="#add8e6" stroke="#add8e6" points="292.8054,-478.6019 73.1946,-478.6019 73.1946,-437.3981 292.8054,-437.3981 292.8054,-478.6019"/>
<text text-anchor="middle" x="183" y="-462.2" font-family="微软雅黑" font-size="14.00" fill="#000000">持续接入与更新管道</text>
<text text-anchor="middle" x="183" y="-445.4" font-family="微软雅黑" font-size="14.00" fill="#000000">(变更监控、增量处理、质量验证)</text>
</g>
<!-- DataSources&#45;&gt;IngestionPipeline -->
<g id="edge3" class="edge">
<title>DataSources-&gt;IngestionPipeline</title>
<path fill="none" stroke="#000000" d="M183,-627.4832C183,-594.0407 183,-527.9714 183,-488.9351"/>
<polygon fill="#000000" stroke="#000000" points="186.5001,-488.6912 183,-478.6913 179.5001,-488.6913 186.5001,-488.6912"/>
</g>
<!-- KnowledgeStore -->
<g id="node4" class="node">
<title>KnowledgeStore</title>
<polygon fill="#add8e6" stroke="#add8e6" points="295.06,-326.2019 60.94,-326.2019 60.94,-284.9981 295.06,-284.9981 295.06,-326.2019"/>
<text text-anchor="middle" x="178" y="-309.8" font-family="微软雅黑" font-size="14.00" fill="#000000">知识存储</text>
<text text-anchor="middle" x="178" y="-293" font-family="微软雅黑" font-size="14.00" fill="#000000">(向量库[Qdrant]、元数据库、版本控制)</text>
</g>
<!-- IngestionPipeline&#45;&gt;KnowledgeStore -->
<g id="edge4" class="edge">
<title>IngestionPipeline-&gt;KnowledgeStore</title>
<path fill="none" stroke="#000000" d="M182.3153,-437.129C181.4625,-411.1367 179.9983,-366.5095 179.015,-336.5368"/>
<polygon fill="#000000" stroke="#000000" points="182.5026,-336.0988 178.6765,-326.219 175.5064,-336.3284 182.5026,-336.0988"/>
</g>
<!-- EmbeddingEngine -->
<g id="node5" class="node">
<title>EmbeddingEngine</title>
<polygon fill="#add8e6" stroke="#add8e6" points="152.038,-209.0019 15.962,-209.0019 15.962,-167.7981 152.038,-167.7981 152.038,-209.0019"/>
<text text-anchor="middle" x="84" y="-192.6" font-family="微软雅黑" font-size="14.00" fill="#000000">双嵌入引擎</text>
<text text-anchor="middle" x="84" y="-175.8" font-family="微软雅黑" font-size="14.00" fill="#000000">(CodeBERT &amp; BGE)</text>
</g>
<!-- KnowledgeStore&#45;&gt;EmbeddingEngine -->
<g id="edge5" class="edge">
<title>KnowledgeStore-&gt;EmbeddingEngine</title>
<path fill="none" stroke="#000000" stroke-dasharray="1,5" d="M170.0895,-284.7462C165.42,-273.8378 158.8793,-260.5889 151,-250 141.8031,-237.6403 129.893,-225.7599 118.6705,-215.7865"/>
<polygon fill="#000000" stroke="#000000" points="120.9077,-213.094 111.0527,-209.2041 116.3309,-218.3906 120.9077,-213.094"/>
</g>
<!-- RetrievalEngine -->
<g id="node6" class="node">
<title>RetrievalEngine</title>
<polygon fill="#add8e6" stroke="#add8e6" points="337.0301,-209.0019 170.9699,-209.0019 170.9699,-167.7981 337.0301,-167.7981 337.0301,-209.0019"/>
<text text-anchor="middle" x="254" y="-192.6" font-family="微软雅黑" font-size="14.00" fill="#000000">高级检索引擎</text>
<text text-anchor="middle" x="254" y="-175.8" font-family="微软雅黑" font-size="14.00" fill="#000000">(混合检索、查询转换)</text>
</g>
<!-- KnowledgeStore&#45;&gt;RetrievalEngine -->
<g id="edge6" class="edge">
<title>KnowledgeStore-&gt;RetrievalEngine</title>
<path fill="none" stroke="#000000" d="M191.4123,-284.9168C203.4932,-266.2867 221.3846,-238.6964 234.9478,-217.7804"/>
<polygon fill="#000000" stroke="#000000" points="237.9619,-219.5653 240.4661,-209.2707 232.0886,-215.7567 237.9619,-219.5653"/>
</g>
<!-- EmbeddingEngine&#45;&gt;KnowledgeStore -->
<g id="edge7" class="edge">
<title>EmbeddingEngine-&gt;KnowledgeStore</title>
<path fill="none" stroke="#000000" d="M82.7747,-209.0881C82.8272,-226.1896 85.4823,-250.264 98,-266.8 101.4356,-271.3384 105.5412,-275.3744 110.0527,-278.9585"/>
<polygon fill="#000000" stroke="#000000" points="108.3603,-282.047 118.5546,-284.9329 112.385,-276.3197 108.3603,-282.047"/>
<text text-anchor="middle" x="122.5" y="-254.2" font-family="微软雅黑" font-size="14.00" fill="#000000">写入嵌入</text>
</g>
<!-- RerankModule -->
<g id="node7" class="node">
<title>RerankModule</title>
<polygon fill="#add8e6" stroke="#add8e6" points="337.0117,-57.4019 228.9883,-57.4019 228.9883,-16.1981 337.0117,-16.1981 337.0117,-57.4019"/>
<text text-anchor="middle" x="283" y="-41" font-family="微软雅黑" font-size="14.00" fill="#000000">重排模块</text>
<text text-anchor="middle" x="283" y="-24.2" font-family="微软雅黑" font-size="14.00" fill="#000000">(Cross-Encoder)</text>
</g>
<!-- RetrievalEngine&#45;&gt;RerankModule -->
<g id="edge8" class="edge">
<title>RetrievalEngine-&gt;RerankModule</title>
<path fill="none" stroke="#000000" d="M257.9715,-167.6385C262.9115,-141.8143 271.3888,-97.4985 277.0921,-67.6841"/>
<polygon fill="#000000" stroke="#000000" points="280.5421,-68.2767 278.9834,-57.7972 273.6668,-66.9615 280.5421,-68.2767"/>
</g>
<!-- Coordinator -->
<g id="node8" class="node">
<title>Coordinator</title>
<polygon fill="#add8e6" stroke="#add8e6" points="924.5978,-478.6019 725.4022,-478.6019 725.4022,-437.3981 924.5978,-437.3981 924.5978,-478.6019"/>
<text text-anchor="middle" x="825" y="-462.2" font-family="微软雅黑" font-size="14.00" fill="#000000">任务调度与协同Agent</text>
<text text-anchor="middle" x="825" y="-445.4" font-family="微软雅黑" font-size="14.00" fill="#000000">(状态管理、任务分配、结果整合)</text>
</g>
<!-- RerankModule&#45;&gt;Coordinator -->
<g id="edge26" class="edge">
<title>RerankModule-&gt;Coordinator</title>
<path fill="none" stroke="#000000" d="M337.1587,-38.1517C542.0232,-43.6158 1258,-66.0427 1258,-112.6 1258,-391.8 1258,-391.8 1258,-391.8 1258,-424.4479 1063.1626,-443.0835 934.8811,-451.8151"/>
<polygon fill="#000000" stroke="#000000" points="934.3545,-448.3424 924.6107,-452.5028 934.8222,-455.3268 934.3545,-448.3424"/>
<text text-anchor="middle" x="1284.0533" y="-254.2" font-family="微软雅黑" font-size="14.00" fill="#000000">重排结果</text>
</g>
<!-- Coordinator&#45;&gt;RerankModule -->
<g id="edge25" class="edge">
<title>Coordinator-&gt;RerankModule</title>
<path fill="none" stroke="#000000" d="M924.7583,-454.8716C1072.7015,-448.879 1333,-432.5457 1333,-391.8 1333,-391.8 1333,-391.8 1333,-112.6 1333,-80.8915 1302.3643,-84.7345 1272,-75.6 1184.0119,-49.1304 552.6636,-39.8067 347.3366,-37.4555"/>
<polygon fill="#000000" stroke="#000000" points="347.3455,-33.9555 337.3067,-37.3424 347.2665,-40.9551 347.3455,-33.9555"/>
<text text-anchor="middle" x="1358.0803" y="-254.2" font-family="微软雅黑" font-size="14.00" fill="#000000">初步结果</text>
</g>
<!-- QueryAgent -->
<g id="node9" class="node">
<title>QueryAgent</title>
<polygon fill="#add8e6" stroke="#add8e6" points="579.1003,-323.6 458.8997,-323.6 458.8997,-287.6 579.1003,-287.6 579.1003,-323.6"/>
<text text-anchor="middle" x="519" y="-301.4" font-family="微软雅黑" font-size="14.00" fill="#000000">查询分解Agent</text>
</g>
<!-- Coordinator&#45;&gt;QueryAgent -->
<g id="edge9" class="edge">
<title>Coordinator-&gt;QueryAgent</title>
<path fill="none" stroke="#000000" d="M725.163,-452.8579C646.2411,-446.4096 545.3185,-432.0277 520.2328,-400.2 505.6205,-381.6605 507.0264,-354.1219 511.0706,-333.5317"/>
<polygon fill="#000000" stroke="#000000" points="514.4866,-334.2935 513.2818,-323.7674 507.6595,-332.7474 514.4866,-334.2935"/>
<text text-anchor="middle" x="548.3836" y="-387.6" font-family="微软雅黑" font-size="14.00" fill="#000000">分配任务</text>
</g>
<!-- CodeRetrievalAgent -->
<g id="node10" class="node">
<title>CodeRetrievalAgent</title>
<polygon fill="#add8e6" stroke="#add8e6" points="703.212,-323.6 596.788,-323.6 596.788,-287.6 703.212,-287.6 703.212,-323.6"/>
<text text-anchor="middle" x="650" y="-301.4" font-family="微软雅黑" font-size="14.00" fill="#000000">代码检索Agent</text>
</g>
<!-- Coordinator&#45;&gt;CodeRetrievalAgent -->
<g id="edge11" class="edge">
<title>Coordinator-&gt;CodeRetrievalAgent</title>
<path fill="none" stroke="#000000" d="M725.1191,-447.1942C675.8396,-440.5768 622.4445,-431.0885 601,-419.2 585.595,-410.6597 577.9311,-399.9354 584,-383.4 591.3635,-363.3374 606.447,-344.9042 620.3376,-331.021"/>
<polygon fill="#000000" stroke="#000000" points="623.0788,-333.2417 627.8754,-323.7948 618.2346,-328.1886 623.0788,-333.2417"/>
</g>
<!-- DocQAAgent -->
<g id="node11" class="node">
<title>DocQAAgent</title>
<polygon fill="#add8e6" stroke="#add8e6" points="830.4222,-323.6 721.5778,-323.6 721.5778,-287.6 830.4222,-287.6 830.4222,-323.6"/>
<text text-anchor="middle" x="776" y="-301.4" font-family="微软雅黑" font-size="14.00" fill="#000000">文档问答Agent</text>
</g>
<!-- Coordinator&#45;&gt;DocQAAgent -->
<g id="edge12" class="edge">
<title>Coordinator-&gt;DocQAAgent</title>
<path fill="none" stroke="#000000" d="M822.0273,-437.1183C819.5793,-421.9923 815.5974,-401.1661 810,-383.4 804.5497,-366.1006 796.4839,-347.4574 789.576,-332.7587"/>
<polygon fill="#000000" stroke="#000000" points="792.7229,-331.2264 785.2429,-323.723 786.4111,-334.2532 792.7229,-331.2264"/>
</g>
<!-- CodeAnalysisAgent -->
<g id="node12" class="node">
<title>CodeAnalysisAgent</title>
<polygon fill="#add8e6" stroke="#add8e6" points="1055.712,-323.6 956.288,-323.6 956.288,-287.6 1055.712,-287.6 1055.712,-323.6"/>
<text text-anchor="middle" x="1006" y="-301.4" font-family="微软雅黑" font-size="14.00" fill="#000000">代码分析Agent</text>
</g>
<!-- Coordinator&#45;&gt;CodeAnalysisAgent -->
<g id="edge13" class="edge">
<title>Coordinator-&gt;CodeAnalysisAgent</title>
<path fill="none" stroke="#000000" d="M924.8027,-446.7616C982.7836,-437.9028 1047.731,-423.1417 1065,-400.2 1082.0772,-377.5131 1060.2065,-349.7617 1038.4187,-330.2007"/>
<polygon fill="#000000" stroke="#000000" points="1040.6476,-327.5014 1030.7795,-323.645 1036.0889,-332.8135 1040.6476,-327.5014"/>
</g>
<!-- DevAssistantAgent -->
<g id="node13" class="node">
<title>DevAssistantAgent</title>
<polygon fill="#add8e6" stroke="#add8e6" points="1180.2832,-323.6 1073.7168,-323.6 1073.7168,-287.6 1180.2832,-287.6 1180.2832,-323.6"/>
<text text-anchor="middle" x="1127" y="-301.4" font-family="微软雅黑" font-size="14.00" fill="#000000">开发辅助Agent</text>
</g>
<!-- Coordinator&#45;&gt;DevAssistantAgent -->
<g id="edge14" class="edge">
<title>Coordinator-&gt;DevAssistantAgent</title>
<path fill="none" stroke="#000000" d="M924.8758,-450.0874C1034.0206,-440.3777 1195.8893,-422.4332 1214,-400.2 1234.5858,-374.9284 1203.3497,-347.695 1172.7304,-328.9675"/>
<polygon fill="#000000" stroke="#000000" points="1174.1264,-325.7283 1163.7314,-323.6803 1170.5804,-331.7638 1174.1264,-325.7283"/>
</g>
<!-- ValidationAgent -->
<g id="node14" class="node">
<title>ValidationAgent</title>
<polygon fill="#add8e6" stroke="#add8e6" points="937.8683,-323.6 848.1317,-323.6 848.1317,-287.6 937.8683,-287.6 937.8683,-323.6"/>
<text text-anchor="middle" x="893" y="-301.4" font-family="微软雅黑" font-size="14.00" fill="#000000">验证Agent</text>
</g>
<!-- Coordinator&#45;&gt;ValidationAgent -->
<g id="edge27" class="edge">
<title>Coordinator-&gt;ValidationAgent</title>
<path fill="none" stroke="#000000" d="M897.6557,-437.2803C915.1388,-428.7029 931.7169,-416.7496 942,-400.2 956.0469,-377.5931 938.8201,-350.5112 921.0395,-331.128"/>
<polygon fill="#000000" stroke="#000000" points="923.4672,-328.6035 914.0013,-323.8445 918.4333,-333.4678 923.4672,-328.6035"/>
</g>
<!-- GenerationAgent -->
<g id="node15" class="node">
<title>GenerationAgent</title>
<polygon fill="#add8e6" stroke="#add8e6" points="440.7121,-323.6 369.2879,-323.6 369.2879,-287.6 440.7121,-287.6 440.7121,-323.6"/>
<text text-anchor="middle" x="405" y="-301.4" font-family="微软雅黑" font-size="14.00" fill="#000000">生成Agent</text>
</g>
<!-- Coordinator&#45;&gt;GenerationAgent -->
<g id="edge29" class="edge">
<title>Coordinator-&gt;GenerationAgent</title>
<path fill="none" stroke="#000000" d="M725.2278,-451.8016C659.0525,-446.3491 570.6176,-436.4855 494,-419.2 468.362,-413.4159 456.6637,-418.7049 438,-400.2 420.1422,-382.4941 411.9297,-354.6155 408.1637,-333.7012"/>
<polygon fill="#000000" stroke="#000000" points="411.6152,-333.1182 406.6107,-323.7798 404.6994,-334.2008 411.6152,-333.1182"/>
</g>
<!-- QueryAgent&#45;&gt;Coordinator -->
<g id="edge10" class="edge">
<title>QueryAgent-&gt;Coordinator</title>
<path fill="none" stroke="#000000" d="M490.0697,-323.6106C462.5954,-342.9474 428.3825,-374.3715 449.4474,-400.2 466.2346,-420.7835 610.5401,-438.3448 715.2711,-448.5397"/>
<polygon fill="#000000" stroke="#000000" points="714.9878,-452.0286 725.2772,-449.5032 715.6587,-445.0608 714.9878,-452.0286"/>
<text text-anchor="middle" x="477.7763" y="-387.6" font-family="微软雅黑" font-size="14.00" fill="#000000">分解结果</text>
</g>
<!-- CodeRetrievalAgent&#45;&gt;RetrievalEngine -->
<g id="edge15" class="edge">
<title>CodeRetrievalAgent-&gt;RetrievalEngine</title>
<path fill="none" stroke="#0000ff" d="M606.2967,-283.4042C600.2542,-280.898 594.0459,-278.6024 588,-276.8 485.1314,-246.1335 450.5803,-276.6961 349,-242 329.4946,-235.3377 309.4022,-224.6513 292.7481,-214.5671"/>
<polygon fill="#0000ff" stroke="#0000ff" points="605.0439,-286.6763 615.6086,-287.4755 607.8481,-280.2626 605.0439,-286.6763"/>
<polygon fill="#0000ff" stroke="#0000ff" points="294.2166,-211.359 283.8751,-209.056 290.5232,-217.3054 294.2166,-211.359"/>
</g>
<!-- CodeRetrievalAgent&#45;&gt;Coordinator -->
<g id="edge21" class="edge">
<title>CodeRetrievalAgent-&gt;Coordinator</title>
<path fill="none" stroke="#000000" d="M638.9263,-323.8303C628.0379,-344.3697 615.2765,-377.8028 631.9502,-400.2 643.0254,-415.0769 678.0406,-427.5454 715.2659,-437.0485"/>
<polygon fill="#000000" stroke="#000000" points="714.7352,-440.5226 725.283,-439.5247 716.4151,-433.7272 714.7352,-440.5226"/>
<text text-anchor="middle" x="672.0249" y="-387.6" font-family="微软雅黑" font-size="14.00" fill="#000000">返回代码片段</text>
</g>
<!-- AgentKnowledge -->
<g id="node16" class="node">
<title>AgentKnowledge</title>
<polygon fill="#add8e6" stroke="#add8e6" points="946.2618,-130.6 831.7382,-130.6 831.7382,-94.6 946.2618,-94.6 946.2618,-130.6"/>
<text text-anchor="middle" x="889" y="-108.4" font-family="微软雅黑" font-size="14.00" fill="#000000">Agent共享知识</text>
</g>
<!-- CodeRetrievalAgent&#45;&gt;AgentKnowledge -->
<g id="edge17" class="edge">
<title>CodeRetrievalAgent-&gt;AgentKnowledge</title>
<path fill="none" stroke="#000000" stroke-dasharray="1,5" d="M669.4722,-287.4313C698.859,-260.3078 756.6771,-208.0865 809,-167.6 822.909,-156.8375 838.7701,-145.7112 852.6813,-136.3056"/>
<polygon fill="#000000" stroke="#000000" points="854.6995,-139.1664 861.0561,-130.6903 850.8012,-133.3523 854.6995,-139.1664"/>
</g>
<!-- DocQAAgent&#45;&gt;RetrievalEngine -->
<g id="edge16" class="edge">
<title>DocQAAgent-&gt;RetrievalEngine</title>
<path fill="none" stroke="#0000ff" d="M731.8147,-283.6006C725.288,-280.976 718.553,-278.5959 712,-276.8 711.198,-276.5802 474.8284,-250.0731 474,-250 446.2732,-247.5531 375.6819,-249.9274 349,-242 328.7496,-235.9835 308.1086,-225.0325 291.2627,-214.5901"/>
<polygon fill="#0000ff" stroke="#0000ff" points="730.6103,-286.8916 741.1827,-287.5812 733.3479,-280.4491 730.6103,-286.8916"/>
<polygon fill="#0000ff" stroke="#0000ff" points="293.1343,-211.6325 282.8214,-209.2045 289.3693,-217.5338 293.1343,-211.6325"/>
</g>
<!-- DocQAAgent&#45;&gt;Coordinator -->
<g id="edge22" class="edge">
<title>DocQAAgent-&gt;Coordinator</title>
<path fill="none" stroke="#000000" d="M753.8041,-323.8591C733.345,-343.0029 708.2917,-373.8995 723.575,-400.2 731.3434,-413.5683 743.489,-424.102 756.713,-432.3034"/>
<polygon fill="#000000" stroke="#000000" points="755.1087,-435.4181 765.5236,-437.3624 758.5943,-429.3477 755.1087,-435.4181"/>
<text text-anchor="middle" x="764.2125" y="-387.6" font-family="微软雅黑" font-size="14.00" fill="#000000">返回文档内容</text>
</g>
<!-- DocQAAgent&#45;&gt;AgentKnowledge -->
<g id="edge18" class="edge">
<title>DocQAAgent-&gt;AgentKnowledge</title>
<path fill="none" stroke="#000000" stroke-dasharray="1,5" d="M786.6308,-287.443C806.6113,-253.3171 849.8551,-179.4582 873.2339,-139.528"/>
<polygon fill="#000000" stroke="#000000" points="876.2829,-141.2474 878.3152,-130.8493 870.2421,-137.7106 876.2829,-141.2474"/>
</g>
<!-- CodeAnalysisAgent&#45;&gt;Coordinator -->
<g id="edge23" class="edge">
<title>CodeAnalysisAgent-&gt;Coordinator</title>
<path fill="none" stroke="#000000" d="M999.3921,-323.6005C988.9284,-349.3595 965.9666,-396.1628 930,-419.2 921.7153,-424.5065 912.6011,-429.2315 903.3094,-433.3976"/>
<polygon fill="#000000" stroke="#000000" points="901.8062,-430.2337 893.9827,-437.3782 904.554,-436.6718 901.8062,-430.2337"/>
<text text-anchor="middle" x="999.25" y="-387.6" font-family="微软雅黑" font-size="14.00" fill="#000000">提供分析结果</text>
</g>
<!-- CodeAnalysisAgent&#45;&gt;AgentKnowledge -->
<g id="edge19" class="edge">
<title>CodeAnalysisAgent-&gt;AgentKnowledge</title>
<path fill="none" stroke="#000000" stroke-dasharray="1,5" d="M994.9929,-287.443C974.3052,-253.3171 929.5306,-179.4582 905.3242,-139.528"/>
<polygon fill="#000000" stroke="#000000" points="908.2401,-137.5863 900.0631,-130.8493 902.2541,-141.2151 908.2401,-137.5863"/>
</g>
<!-- DevAssistantAgent&#45;&gt;Coordinator -->
<g id="edge24" class="edge">
<title>DevAssistantAgent-&gt;Coordinator</title>
<path fill="none" stroke="#000000" d="M1119.8674,-323.6705C1111.1469,-344.0634 1094.8133,-377.3623 1073,-400.2 1062.099,-411.6129 1057.7124,-413.4876 1043,-419.2 1008.8519,-432.4587 969.9206,-441.2227 934.4984,-447.0012"/>
<polygon fill="#000000" stroke="#000000" points="933.9441,-443.5453 924.6075,-448.5531 935.0292,-450.4607 933.9441,-443.5453"/>
<text text-anchor="middle" x="1132.6662" y="-387.6" font-family="微软雅黑" font-size="14.00" fill="#000000">提供开发建议</text>
</g>
<!-- DevAssistantAgent&#45;&gt;AgentKnowledge -->
<g id="edge20" class="edge">
<title>DevAssistantAgent-&gt;AgentKnowledge</title>
<path fill="none" stroke="#000000" stroke-dasharray="1,5" d="M1104.6095,-287.443C1061.7294,-252.6705 967.9778,-176.645 919.4533,-137.2953"/>
<polygon fill="#000000" stroke="#000000" points="921.476,-134.4294 911.5043,-130.8493 917.067,-139.8664 921.476,-134.4294"/>
</g>
<!-- ValidationAgent&#45;&gt;Coordinator -->
<g id="edge28" class="edge">
<title>ValidationAgent-&gt;Coordinator</title>
<path fill="none" stroke="#000000" d="M884.8609,-323.8411C873.4003,-349.5264 852.3637,-396.6731 838.5297,-427.6775"/>
<polygon fill="#000000" stroke="#000000" points="835.191,-426.5706 834.3125,-437.129 841.5836,-429.423 835.191,-426.5706"/>
<text text-anchor="middle" x="896.1031" y="-387.6" font-family="微软雅黑" font-size="14.00" fill="#000000">验证结论</text>
</g>
<!-- GenerationAgent&#45;&gt;APIInterface -->
<g id="edge30" class="edge">
<title>GenerationAgent-&gt;APIInterface</title>
<path fill="none" stroke="#000000" d="M376.5437,-323.9C356.4185,-339.2978 333,-363.3315 333,-391.8 333,-648.2 333,-648.2 333,-648.2 333,-721.7194 575.4922,-706.0605 665.9647,-729.0971"/>
<polygon fill="#000000" stroke="#000000" points="665.1452,-732.5038 675.725,-731.9403 667.1029,-725.7831 665.1452,-732.5038"/>
<text text-anchor="middle" x="357.1073" y="-523.8" font-family="微软雅黑" font-size="14.00" fill="#000000">最终响应</text>
</g>
<!-- APIInterface&#45;&gt;Coordinator -->
<g id="edge2" class="edge">
<title>APIInterface-&gt;Coordinator</title>
<path fill="none" stroke="#000000" d="M716.2563,-728.7343C735.6609,-680.4236 788.9016,-547.8725 812.9405,-488.024"/>
<polygon fill="#000000" stroke="#000000" points="816.1934,-489.3157 816.6729,-478.7317 809.6978,-486.7066 816.1934,-489.3157"/>
</g>
<!-- UserInterface -->
<g id="node18" class="node">
<title>UserInterface</title>
<polygon fill="#add8e6" stroke="#add8e6" points="657.9258,-764.8 538.0742,-764.8 538.0742,-728.8 657.9258,-728.8 657.9258,-764.8"/>
<text text-anchor="middle" x="598" y="-742.6" font-family="微软雅黑" font-size="14.00" fill="#000000">开发者交互界面</text>
</g>
<!-- FeedbackLoop -->
<g id="node19" class="node">
<title>FeedbackLoop</title>
<polygon fill="#add8e6" stroke="#add8e6" points="639.7676,-590.4 556.2324,-590.4 556.2324,-554.4 639.7676,-554.4 639.7676,-590.4"/>
<text text-anchor="middle" x="598" y="-568.2" font-family="微软雅黑" font-size="14.00" fill="#000000">反馈与监控</text>
</g>
<!-- UserInterface&#45;&gt;FeedbackLoop -->
<g id="edge31" class="edge">
<title>UserInterface-&gt;FeedbackLoop</title>
<path fill="none" stroke="#000000" d="M598,-728.793C598,-698.5069 598,-637.1413 598,-600.9363"/>
<polygon fill="#000000" stroke="#000000" points="601.5001,-600.5703 598,-590.5703 594.5001,-600.5703 601.5001,-600.5703"/>
</g>
<!-- FeedbackLoop&#45;&gt;IngestionPipeline -->
<g id="edge33" class="edge">
<title>FeedbackLoop-&gt;IngestionPipeline</title>
<path fill="none" stroke="#00ff00" d="M556.0415,-561.6792C513.136,-550.7917 444.5261,-533.5897 385,-519.6 369.0444,-515.8501 364.816,-515.9006 349,-511.6 316.9684,-502.8901 281.9346,-491.8126 252.3417,-481.9917"/>
<polygon fill="#00ff00" stroke="#00ff00" points="253.1204,-478.5618 242.5266,-478.7145 250.9034,-485.2014 253.1204,-478.5618"/>
<text text-anchor="middle" x="495.2742" y="-523.8" font-family="微软雅黑" font-size="14.00" fill="#000000">数据质量反馈</text>
</g>
<!-- FeedbackLoop&#45;&gt;Coordinator -->
<g id="edge32" class="edge">
<title>FeedbackLoop-&gt;Coordinator</title>
<path fill="none" stroke="#00ff00" d="M633.7185,-554.3992C671.7554,-535.2299 732.2488,-504.7433 775.0082,-483.1941"/>
<polygon fill="#00ff00" stroke="#00ff00" points="776.7635,-486.2289 784.1184,-478.6029 773.6131,-479.9779 776.7635,-486.2289"/>
<text text-anchor="middle" x="724.4183" y="-523.8" font-family="微软雅黑" font-size="14.00" fill="#000000">优化指令</text>
</g>
</g>
</svg>